<?xml version="1.0" encoding="UTF-8" standalone="no"?>
<!-- Created with Inkscape (http://www.inkscape.org/) -->

<svg
   xmlns:dc="http://purl.org/dc/elements/1.1/"
   xmlns:cc="http://creativecommons.org/ns#"
   xmlns:rdf="http://www.w3.org/1999/02/22-rdf-syntax-ns#"
   xmlns:svg="http://www.w3.org/2000/svg"
   xmlns="http://www.w3.org/2000/svg"
   xmlns:sodipodi="http://sodipodi.sourceforge.net/DTD/sodipodi-0.dtd"
   xmlns:inkscape="http://www.inkscape.org/namespaces/inkscape"
   width="400"
   height="600"
   id="svg2"
   version="1.1"
   inkscape:version="0.48.2 r9819"
   sodipodi:docname="yokogana.svg"
   inkscape:export-filename="C:\Users\ne_Sachirou\Documents\HALt\HE11\hewBase\20120127_1\20120127_1\fonts\こ.png"
   inkscape:export-xdpi="60"
   inkscape:export-ydpi="60">
  <defs
     id="defs4" />
  <sodipodi:namedview
     id="base"
     pagecolor="#ffffff"
     bordercolor="#666666"
     borderopacity="1.0"
     inkscape:pageopacity="0.0"
     inkscape:pageshadow="2"
     inkscape:zoom="1"
     inkscape:cx="268.5"
     inkscape:cy="267.24792"
     inkscape:document-units="px"
     inkscape:current-layer="layer9"
     showgrid="true"
     objecttolerance="10000"
     guidetolerance="10000"
     inkscape:window-width="1366"
     inkscape:window-height="716"
     inkscape:window-x="-8"
     inkscape:window-y="-8"
     inkscape:window-maximized="1">
    <inkscape:grid
       type="xygrid"
       id="grid2985"
       empspacing="5"
       visible="true"
       enabled="true"
       snapvisiblegridlinesonly="true" />
  </sodipodi:namedview>
  <metadata
     id="metadata7">
    <rdf:RDF>
      <cc:Work
         rdf:about="">
        <dc:format>image/svg+xml</dc:format>
        <dc:type
           rdf:resource="http://purl.org/dc/dcmitype/StillImage" />
        <dc:title></dc:title>
      </cc:Work>
    </rdf:RDF>
  </metadata>
  <g
     inkscape:label="あ"
     inkscape:groupmode="layer"
     id="layer1"
     transform="translate(0,-452.36218)"
     style="display:none"
     sodipodi:insensitive="true">
    <path
       style="fill:none;stroke:#000000;stroke-width:30;stroke-linecap:round;stroke-linejoin:miter;stroke-miterlimit:4;stroke-opacity:1;stroke-dasharray:none"
       d="m 0,400 c 0,0 58.185773,-360.567712 200,-380 81.7654,-11.2040161 167.84043,97.4988 170,180 2.28953,87.46607 -82.57555,196.46157 -170,200 -47.10189,1.90641 -100,-52.85955 -100,-100 0,-47.14045 52.86897,-100.94224 100,-100 58.96091,1.17875 77.74932,88.85807 120,130 25.38638,24.72018 80,70 80,70"
       id="path2989"
       inkscape:connector-curvature="0"
       transform="translate(0,452.36218)"
       sodipodi:nodetypes="caaaaaac" />
  </g>
  <g
     inkscape:groupmode="layer"
     id="layer2"
     inkscape:label="い"
     sodipodi:insensitive="true"
     style="display:none">
    <path
       style="fill:none;stroke:#000000;stroke-width:30;stroke-linecap:round;stroke-linejoin:round;stroke-miterlimit:4;stroke-opacity:1;stroke-dasharray:none"
       d="m 0,400 c 0,0 90.857577,-98.81414 90,-160 -0.272394,-19.4346 -10.709121,-47.62518 -30,-50 -14.036176,-1.72793 -28.606468,15.92669 -30,30 -1.184275,11.96001 7.998607,29.3589 20,30 25.9971,1.38873 50,-60 50,-60 0,0 -14.031726,76.12442 0,110 18.03987,43.5521 52.87584,101.23925 100,100 44.82991,-1.17892 72.05277,-58.90246 90,-100 14.73459,-33.74088 10,-110 10,-110 0,0 -4.73459,76.25912 10,110 17.94723,41.09754 90,100 90,100"
       id="path3762"
       inkscape:connector-curvature="0"
       sodipodi:nodetypes="caaaacaaacac" />
  </g>
  <g
     inkscape:groupmode="layer"
     id="layer3"
     inkscape:label="う"
     sodipodi:insensitive="true"
     style="display:none">
    <path
       style="fill:none;stroke:#000000;stroke-width:30;stroke-linecap:round;stroke-linejoin:round;stroke-miterlimit:4;stroke-opacity:1;stroke-dasharray:none"
       d="m 0,400 c 0,0 106.04034,-192.22366 200,-200 57.15343,-4.73016 140,42.65116 140,100 0,57.34884 -140,100 -140,100 0,0 154.98821,-5.65163 160,50 7.08774,78.70329 -147.89603,158.86247 -210,110 -21.60258,-16.99659 1.45506,-59.71106 20,-80 54.76439,-59.91453 230,-80 230,-80"
       id="path3765"
       inkscape:connector-curvature="0"
       sodipodi:nodetypes="caacaaac" />
  </g>
  <g
     inkscape:groupmode="layer"
     id="layer4"
     inkscape:label="え"
     sodipodi:insensitive="true"
     style="display:none">
    <path
       style="fill:none;stroke:#000000;stroke-width:30;stroke-linecap:round;stroke-linejoin:round;stroke-miterlimit:4;stroke-opacity:1;stroke-dasharray:none"
       d="m 0,400 c 0,0 113.08539,-12.38232 150,-50 78.27289,-79.76367 100,-320 100,-320 0,0 -30.19246,247.13198 -50,370 -8.63619,53.57108 -30,160 -30,160 0,0 13.1831,-127.55586 60,-160 46.57578,-32.27704 170,0 170,0"
       id="path3768"
       inkscape:connector-curvature="0"
       sodipodi:nodetypes="cacacac" />
  </g>
  <g
     inkscape:groupmode="layer"
     id="layer5"
     inkscape:label="お"
     sodipodi:insensitive="true"
     style="display:none">
    <path
       style="fill:none;stroke:#000000;stroke-width:30;stroke-linecap:round;stroke-linejoin:round;stroke-miterlimit:4;stroke-opacity:1;stroke-dasharray:none"
       d="m 0,400 c 0,0 105.7331,-201.62481 200,-200 68.38412,1.17869 134.43454,81.83253 140,150 6.84589,83.85053 -55.99025,205.51232 -140,210 -25.9971,1.38873 -56.38484,-34.76091 -50,-60 22.01171,-87.01172 250,-100 250,-100"
       id="path3771"
       inkscape:connector-curvature="0"
       sodipodi:nodetypes="caaaac" />
  </g>
  <g
     inkscape:label="か"
     id="g2992"
     inkscape:groupmode="layer"
     sodipodi:insensitive="true"
     style="display:none">
    <path
       sodipodi:nodetypes="caaaac"
       inkscape:connector-curvature="0"
       id="path2994"
       d="m 0,400 c 0,0 105.7331,-201.62481 200,-200 68.38412,1.17869 134.43454,81.83253 140,150 6.84589,83.85053 -55.99025,205.51232 -140,210 -25.9971,1.38873 -56.38484,-34.76091 -50,-60 22.01171,-87.01172 250,-100 250,-100"
       style="fill:none;stroke:#000000;stroke-width:30;stroke-linecap:round;stroke-linejoin:round;stroke-miterlimit:4;stroke-opacity:1;stroke-dasharray:none" />
    <path
       sodipodi:type="arc"
       style="fill:#000000;fill-opacity:1;stroke:none"
       id="path3764"
       sodipodi:cx="180"
       sodipodi:cy="100"
       sodipodi:rx="30"
       sodipodi:ry="30"
       d="m 210,100 a 30,30 0 1 1 -60,0 30,30 0 1 1 60,0 z"
       transform="translate(10,0)" />
  </g>
  <g
     inkscape:groupmode="layer"
     id="layer6"
     inkscape:label="き"
     sodipodi:insensitive="true"
     style="display:none">
    <path
       style="fill:none;stroke:#000000;stroke-width:30;stroke-linecap:round;stroke-linejoin:round;stroke-miterlimit:4;stroke-opacity:1;stroke-dasharray:none"
       d="m 0,400 c 0,0 37.957749,-22.37786 50,-40 31.526001,-46.13386 50,-160 50,-160 0,0 -11.043587,116.12307 20,160 17.21988,24.33854 50.18576,40 80,40 29.81424,0 62.78012,-15.66146 80,-40 31.04359,-43.87693 20,-160 20,-160 0,0 18.474,113.86614 50,160 12.04225,17.62214 50,40 50,40"
       id="path3767"
       inkscape:connector-curvature="0"
       sodipodi:nodetypes="cacaaacac" />
    <path
       sodipodi:type="arc"
       style="fill:#000000;fill-opacity:1;stroke:none"
       id="path3769"
       sodipodi:cx="200"
       sodipodi:cy="130"
       sodipodi:rx="30"
       sodipodi:ry="30"
       d="m 230,130 a 30,30 0 1 1 -60,0 30,30 0 1 1 60,0 z"
       transform="translate(0,20)" />
  </g>
  <g
     inkscape:groupmode="layer"
     id="layer7"
     inkscape:label="く"
     sodipodi:insensitive="true"
     style="display:none">
    <path
       style="fill:none;stroke:#000000;stroke-width:30;stroke-linecap:round;stroke-linejoin:round;stroke-miterlimit:4;stroke-opacity:1;stroke-dasharray:none"
       d="m 0,400 c 0,0 130.66411,-52.28123 180,-100 27.94149,-27.02562 60,-100 60,-100 l -40,240 c 0,0 10.08891,-76.46838 40,-90 50.90958,-23.03122 160,50 160,50"
       id="path3772"
       inkscape:connector-curvature="0"
       sodipodi:nodetypes="caccac" />
  </g>
  <g
     inkscape:groupmode="layer"
     id="layer8"
     inkscape:label="け"
     sodipodi:insensitive="true"
     style="display:none">
    <path
       style="fill:none;stroke:#000000;stroke-width:30;stroke-linecap:round;stroke-linejoin:round;stroke-miterlimit:4;stroke-opacity:1;stroke-dasharray:none"
       d="m 0,400 c 0,0 23.757243,-24.54666 30,-40 20.132288,-49.83553 20,-160 20,-160 l 0,200 c 0,0 203.45688,-80.9387 300,-50 22.44582,7.1931 50,50 50,50"
       id="path3775"
       inkscape:connector-curvature="0"
       sodipodi:nodetypes="caccac" />
    <path
       style="fill:none;stroke:#000000;stroke-width:30;stroke-linecap:round;stroke-linejoin:round;stroke-miterlimit:4;stroke-opacity:1;stroke-dasharray:none"
       d="m 200,200 c 0,0 10.05761,134.09637 0,200 -8.42982,55.23731 -50,160 -50,160"
       id="path3777"
       inkscape:connector-curvature="0"
       sodipodi:nodetypes="cac" />
  </g>
  <g
     inkscape:groupmode="layer"
     id="layer9"
     inkscape:label="こ">
    <path
       style="fill:none;stroke:#000000;stroke-width:30;stroke-linecap:round;stroke-linejoin:round;stroke-miterlimit:4;stroke-opacity:1;stroke-dasharray:none"
       d="m 0,400 c 0,0 29.428682,-24.38581 40,-40 28.464145,-42.04248 31.535855,-97.95752 60,-140 7.92849,-11.71064 30,-15.85786 30,-30 0,-14.14214 -15.85786,-30 -30,-30 -14.142136,0 -30,15.85786 -30,30 0,14.14214 17.531238,23.32692 30,30 29.97117,16.04009 66.00654,20 100,20 33.99346,0 100,-20 100,-20 0,0 31.53585,97.95752 60,140 10.57132,15.61419 40,40 40,40"
       id="path3780"
       inkscape:connector-curvature="0"
       sodipodi:nodetypes="caaaaaaacac" />
  </g>
</svg>
